<svg>
  <!-- Mute icon -->
  <symbol id="muteBtn" viewBox="0 0 32 32" xmlns="http://www.w3.org/2000/svg" fill="none">
    <path stroke-linecap="round" stroke-linejoin="round" stroke-width="2" d="M9.5 21H8a1 1 0 01-1-1v-8a1 1 0 011-1h7l5-5 1.586-1.586C22.846 3.154 25 4.047 25 5.828V6m-8 17l4.586 4.586c1.26 1.26 3.414.367 3.414-1.414V14.5M7 28L29 6"/>
  </symbol>
  <!-- Unmute icon -->
  <symbol id="unmuteBtn" viewBox="0 0 32 32" xmlns="http://www.w3.org/2000/svg" fill="none">
    <path stroke-linecap="round" stroke-linejoin="round" stroke-width="2" d="M7 12v8a1 1 0 001 1h7l6.586 6.586c1.26 1.26 3.414.367 3.414-1.414V5.828c0-1.781-2.154-2.674-3.414-1.414L20 6l-5 5H8a1 1 0 00-1 1z"/>
  </symbol>
</svg>